<svg width="86" height="86" viewBox="0 0 86 86" fill="none" xmlns="http://www.w3.org/2000/svg">
<g id="material-symbols:cooking">
<path id="Vector" d="M32.25 75.25V64.5H7.16667V57.3333H32.25C34.2208 57.3333 35.9086 58.0357 37.3133 59.4403C38.7179 60.845 39.4191 62.5316 39.4167 64.5V75.25H32.25ZM46.5833 75.25V64.5C46.5833 62.5292 47.2857 60.8414 48.6903 59.4368C50.095 58.0321 51.7816 57.331 53.75 57.3333H78.8333V64.5H53.75V75.25H46.5833ZM21.5 53.75C18.5139 53.75 15.9757 52.7049 13.8854 50.6146C11.7951 48.5243 10.75 45.9861 10.75 43V28.6667H75.25V43C75.25 45.9861 74.2049 48.5243 72.1146 50.6146C70.0243 52.7049 67.4861 53.75 64.5 53.75H21.5ZM10.75 25.0833V17.9167H32.25V14.3333C32.25 13.3181 32.594 12.4664 33.282 11.7784C33.97 11.0904 34.8204 10.7476 35.8333 10.75H50.1667C51.1819 10.75 52.0336 11.094 52.7216 11.782C53.4096 12.47 53.7524 13.3205 53.75 14.3333V17.9167H75.25V25.0833H10.75Z" fill="white"/>
</g>
</svg>
