<svg width="86" height="86" viewBox="0 0 86 86" fill="none" xmlns="http://www.w3.org/2000/svg">
<g id="mdi:dinner">
<path id="Vector" d="M19.4933 28.5234L21.3566 26.6242C23.435 24.5459 26.875 24.5459 29.025 26.7676L29.0966 26.8751C30.8525 28.6667 33.1816 29.5268 35.7258 29.7776C39.2016 30.1001 42.57 31.9634 44.7916 35.3317C47.2283 39.2017 47.1925 44.3617 44.6483 48.1959C43.6887 49.7134 42.3983 50.9941 40.8736 51.9423C39.349 52.8904 37.6296 53.4814 35.8442 53.671C34.0588 53.8606 32.2536 53.6438 30.5639 53.037C28.8741 52.4301 27.3435 51.4489 26.0866 50.1667C24.08 48.1959 22.9333 45.6517 22.6466 43.0001C22.36 40.3843 21.3208 37.9117 19.4933 36.0842C17.415 34.0417 17.415 30.6017 19.4933 28.5234ZM34.5433 57.3334C30.3508 57.3334 26.445 55.7209 23.5425 52.7467C21.0341 50.1668 19.4575 46.9417 19.0633 43.4301C18.9558 42.3551 18.6333 40.9576 17.7733 39.6676C15.6233 42.6418 14.3333 46.2251 14.3333 50.1667C14.3333 56.0434 17.2 61.2393 21.6075 64.5001H68.0833V60.9168C68.0833 48.0168 59.5191 37.0876 47.8016 33.5043C50.9908 38.5209 50.9191 45.2217 47.6583 50.1667C44.7916 54.6459 39.8466 57.3334 34.5433 57.3334ZM52.9616 27.0901H57.5125C60.63 27.0901 63.3533 29.2759 63.3533 33.1817V35.8334H67.8325V32.2501C67.8325 26.8751 63.0666 22.7901 57.5125 22.7901H52.9616C49.9875 22.7901 47.4433 19.8517 47.4433 16.8417C47.4433 13.8317 49.9875 11.6101 52.9616 11.6101V7.16675C47.4433 7.16675 43 11.6101 43 17.1284C43 22.6467 47.4433 27.0901 52.9616 27.0901ZM16.125 27.0542C16.34 26.6959 16.6266 26.3376 16.9491 25.9792L18.8125 24.1159C19.135 23.7934 19.4933 23.5426 19.8516 23.2917L14.7991 18.1676C15.3008 17.2001 15.1216 15.9459 14.3333 15.1217C13.8202 14.6222 13.1323 14.3427 12.4162 14.3427C11.7001 14.3427 11.0123 14.6222 10.4991 15.1217C9.99747 15.6234 9.74664 16.2326 9.71081 16.8776C9.06581 16.9134 8.45664 17.1642 7.95497 17.6659C6.91581 18.7051 6.91581 20.4251 7.95497 21.5001C8.77914 22.2884 9.99747 22.4676 11.0008 21.9659L16.125 27.0542ZM65.8975 15.7309C67.725 13.9034 68.8716 11.4309 68.8716 8.67175H64.3925C64.3925 11.6459 61.8841 14.1542 58.91 14.1542V18.5976C65.575 18.5976 70.8066 24.0442 70.8066 30.7092V39.4167H75.25V30.7092C75.2679 27.5835 74.3986 24.5169 72.7431 21.8655C71.0876 19.2142 68.7138 17.0869 65.8975 15.7309ZM17.9166 75.2501H68.0833C72.0608 75.2501 75.25 72.0609 75.25 68.0834H10.75C10.75 69.9841 11.505 71.807 12.849 73.151C14.1931 74.495 16.0159 75.2501 17.9166 75.2501Z" fill="white"/>
</g>
</svg>
