<svg width="86" height="86" viewBox="0 0 86 86" fill="none" xmlns="http://www.w3.org/2000/svg">
<g id="fluent-mdl2:eat-drink">
<path id="Vector" d="M40.3125 0C41.0404 0 41.6702 0.265951 42.2021 0.797852C42.734 1.32975 43 1.95964 43 2.6875V32.25C43 33.7337 42.7201 35.1195 42.1602 36.4072C41.6003 37.695 40.8304 38.8288 39.8506 39.8086C38.8708 40.7884 37.723 41.5583 36.4072 42.1182C35.0915 42.6781 33.7057 42.972 32.25 43V83.3125C32.25 84.0404 31.984 84.6702 31.4521 85.2021C30.9202 85.734 30.2904 86 29.5625 86C28.8346 86 28.2048 85.734 27.6729 85.2021C27.141 84.6702 26.875 84.0404 26.875 83.3125V43C25.3913 43 24.0055 42.7201 22.7178 42.1602C21.43 41.6003 20.2962 40.8304 19.3164 39.8506C18.3366 38.8708 17.5667 37.737 17.0068 36.4492C16.4469 35.1615 16.153 33.7617 16.125 32.25V2.6875C16.125 1.95964 16.391 1.32975 16.9229 0.797852C17.4548 0.265951 18.0846 0 18.8125 0C19.5404 0 20.1702 0.265951 20.7021 0.797852C21.234 1.32975 21.5 1.95964 21.5 2.6875V32.25C21.5 33.0059 21.64 33.7057 21.9199 34.3496C22.1999 34.9935 22.5778 35.5534 23.0537 36.0293C23.5296 36.5052 24.1035 36.8971 24.7754 37.2051C25.4473 37.513 26.1471 37.653 26.875 37.625V2.6875C26.875 1.95964 27.141 1.32975 27.6729 0.797852C28.2048 0.265951 28.8346 0 29.5625 0C30.2904 0 30.9202 0.265951 31.4521 0.797852C31.984 1.32975 32.25 1.95964 32.25 2.6875V37.625C33.0059 37.625 33.7057 37.485 34.3496 37.2051C34.9935 36.9251 35.5534 36.5472 36.0293 36.0713C36.5052 35.5954 36.8971 35.0215 37.2051 34.3496C37.513 33.6777 37.653 32.9779 37.625 32.25V2.6875C37.625 1.95964 37.891 1.32975 38.4229 0.797852C38.9548 0.265951 39.5846 0 40.3125 0ZM69.875 0V83.3125C69.875 84.0404 69.6091 84.6702 69.0771 85.2021C68.5452 85.734 67.9154 86 67.1875 86C66.4596 86 65.8298 85.734 65.2979 85.2021C64.7659 84.6702 64.5 84.0404 64.5 83.3125V59.125C63.4642 59.125 62.3444 59.139 61.1406 59.167C59.9368 59.195 58.7471 59.181 57.5713 59.125C56.3955 59.069 55.2477 58.901 54.1279 58.6211C53.0081 58.3411 52.0283 57.9072 51.1885 57.3193C50.3486 56.7314 49.6628 55.9336 49.1309 54.9258C48.599 53.918 48.347 52.6302 48.375 51.0625V18.8125C48.375 16.209 48.8649 13.7734 49.8447 11.5059C50.8245 9.23828 52.1683 7.25065 53.876 5.54297C55.5837 3.83529 57.5713 2.49154 59.8389 1.51172C62.1064 0.531901 64.556 0.0279948 67.1875 0H69.875ZM64.5 5.62695C62.9323 5.9349 61.5046 6.49479 60.2168 7.30664C58.929 8.11849 57.7952 9.1263 56.8154 10.3301C55.8356 11.5339 55.0798 12.8356 54.5479 14.2354C54.0159 15.6351 53.75 17.1608 53.75 18.8125V51.0625C53.75 51.7904 54.0159 52.4202 54.5479 52.9521C55.0798 53.4841 55.7096 53.75 56.4375 53.75H64.5V5.62695Z" fill="white"/>
</g>
</svg>
